#!OML:ASF E:\emotionWalksFemale\Project 1\Capture day 1\Session 1\Female1.ASF
:FULLY-SPECIFIED
:DEGREES
174
root 8.67668 12.8548 33.9628 -164.933 -1.11886 -177.631
lowerback 21.5253 2.38317 4.2528
upperback -2.80895 4.39624 0.788446
thorax -15.1365 1.63026 -2.99873
lowerneck -5.55453 -3.55712 -6.14454
upperneck -16.0808 -5.95917 2.73613
head -4.08549 -3.36811 2.13231
rclavicle -1.94809e-014 3.49861e-014
rhumerus -20.9945 10.1669 -81.4919
rradius 30.9435
rwrist 32.7668
rhand -9.01445 -53.9225
rfingers 7.12502
rthumb 16.9325 -83.2044
lclavicle -1.94809e-014 3.49861e-014
lhumerus -39.9806 1.20288 79.7742
lradius 34.0541
lwrist -29.5499
lhand -1.85648 -35.8689
lfingers 7.12502
lthumb 23.811 -7.32447
rfemur -55.1787 2.99783 31.8789
rtibia 80.6421
rfoot -31.4644 -19.2794
rtoes -5.63141
lfemur -60.7987 3.75912 -18.049
ltibia 81.6103
lfoot -37.2203 8.05064
ltoes -25.467
175
root 8.68672 12.8327 33.953 -165.446 -1.29242 -176.512
lowerback 20.6332 2.27121 5.34427
upperback -1.92733 4.42641 1.15462
thorax -13.5116 1.63509 -3.1209
lowerneck -5.59064 -3.40623 -6.18586
upperneck -16.8993 -5.89053 2.79957
head -4.3852 -3.37723 2.19464
rclavicle -5.68524e-014 -5.56597e-015
rhumerus -18.7914 10.5033 -81.3051
rradius 30.558
rwrist 33.3194
rhand -8.85752 -53.4779
rfingers 7.12502
rthumb 17.0836 -82.7468
lclavicle -5.68524e-014 -5.56597e-015
lhumerus -37.4848 1.48755 79.8796
lradius 34.3375
lwrist -30.1219
lhand -3.66063 -36.471
lfingers 7.12502
lthumb 22.0798 -7.71156
rfemur -54.5063 3.2156 33.2364
rtibia 80.73
rfoot -31.2914 -19.62
rtoes -5.76653
lfemur -60.5452 3.93199 -16.6474
ltibia 81.9597
lfoot -37.1941 8.16035
ltoes -26.2303
176
root 8.68818 12.8436 33.9402 -165.362 -1.15524 -176.688
lowerback 21.0098 2.30975 5.25619
upperback -2.28487 4.50433 1.03615
thorax -14.1443 1.64511 -3.26497
lowerneck -5.44979 -3.45754 -6.43589
upperneck -16.5581 -5.86716 2.98047
head -4.27416 -3.33488 2.29025
rclavicle 2.96189e-014 2.8625e-014
rhumerus -18.6365 10.6195 -81.4525
rradius 30.4908
rwrist 33.4848
rhand -8.99602 -53.1408
rfingers 7.12502
rthumb 16.9503 -82.4212
lclavicle 2.96189e-014 2.8625e-014
lhumerus -36.5412 0.925581 80.0101
lradius 34.7499
lwrist -29.3993
lhand -4.01668 -37.0442
lfingers 7.12502
lthumb 21.7379 -8.24479
rfemur -54.6439 3.32236 32.9756
rtibia 80.9528
rfoot -31.3688 -19.3289
rtoes -5.71084
lfemur -60.4246 3.68217 -16.7539
ltibia 81.9292
lfoot -37.312 8.50033
ltoes -25.5756
177
root 8.68862 12.8515 33.9256 -165.248 -1.14421 -176.829
lowerback 20.5024 2.27717 5.16344
upperback -2.14254 4.39697 1.07068
thorax -13.6967 1.62772 -3.10531
lowerneck -5.68812 -3.40741 -6.97836
upperneck -16.4574 -5.73987 3.29274
head -4.18093 -3.25843 2.47996
rclavicle 2.46493e-014 1.82882e-014
rhumerus -17.6329 11.1527 -81.362
rradius 30.4414
rwrist 33.1269
rhand -9.23796 -53.1911
rfingers 7.12502
rthumb 16.7174 -82.4913
lclavicle 2.46493e-014 1.82882e-014
lhumerus -34.8502 0.560948 80.3556
lradius 35.009
lwrist -28.6225
lhand -4.71063 -37.6647
lfingers 7.12502
lthumb 21.0714 -8.78954
rfemur -54.7353 3.39341 32.7085
rtibia 80.9402
rfoot -31.6864 -18.7341
rtoes -4.54537
lfemur -60.3983 3.36025 -16.7861
ltibia 81.9015
lfoot -37.4942 8.43981
ltoes -23.6865
178
root 8.68562 12.8742 33.9042 -165.375 -1.05883 -176.823
lowerback 20.3114 2.22219 5.24513
upperback -2.0207 4.32094 1.08127
thorax -13.4428 1.5984 -3.10088
lowerneck -5.92161 -3.36293 -7.11143
upperneck -16.2913 -5.65595 3.29879
head -4.07894 -3.21208 2.49021
rclavicle 3.67752e-014 1.03368e-014
rhumerus -16.7389 11.4557 -81.4116
rradius 30.2948
rwrist 32.9338
rhand -9.35695 -53.0048
rfingers 7.12502
rthumb 16.6028 -82.3146
lclavicle 3.67752e-014 1.03368e-014
lhumerus -33.5688 -0.0530611 80.5285
lradius 35.5984
lwrist -27.8302
lhand -5.03964 -38.3826
lfingers 7.12502
lthumb 20.7553 -9.47256
rfemur -54.3328 3.41614 32.5829
rtibia 80.7532
rfoot -32.0382 -18.2202
rtoes -4.02298
lfemur -59.9485 3.13721 -16.6961
ltibia 81.6955
lfoot -37.5801 8.60273
ltoes -22.6243
179
root 8.68597 12.9098 33.8782 -165.506 -0.777353 -177.033
lowerback 20.0655 2.30517 4.99395
upperback -1.89219 4.33602 0.987825
thorax -13.157 1.63554 -3.05073
lowerneck -5.92013 -3.34886 -6.93098
upperneck -16.3308 -5.67251 3.11841
head -4.10117 -3.22644 2.39824
rclavicle 5.80451e-014 -2.14687e-014
rhumerus -15.9515 11.4844 -81.5084
rradius 30.1853
rwrist 32.8826
rhand -9.33159 -52.6436
rfingers 7.12502
rthumb 16.6272 -81.9514
lclavicle 5.80451e-014 -2.14687e-014
lhumerus -32.3682 -0.837378 80.6756
lradius 36.2053
lwrist -27.1072
lhand -6.24862 -38.6471
lfingers 7.12502
lthumb 19.5933 -9.61442
rfemur -53.8708 3.52514 32.2019
rtibia 80.5114
rfoot -32.0107 -18.0082
rtoes -4.56102
lfemur -59.278 2.91173 -16.8979
ltibia 81.3671
lfoot -37.6127 9.23999
ltoes -23.15
180
root 8.69171 12.93 33.8609 -165.646 -0.813059 -176.748
lowerback 20.2237 2.27589 5.30649
upperback -1.99071 4.39185 1.00691
thorax -13.3394 1.62874 -3.2344
lowerneck -6.01803 -3.38554 -6.69711
upperneck -16.1016 -5.7237 2.86712
head -4.0069 -3.24902 2.25827
rclavicle -3.37934e-014 -7.95139e-015
rhumerus -15.6664 11.642 -81.7429
rradius 30.3108
rwrist 32.568
rhand -9.2609 -52.8158
rfingers 7.12502
rthumb 16.6953 -82.1178
lclavicle -3.37934e-014 -7.95139e-015
lhumerus -31.5218 -1.70548 80.817
lradius 36.7881
lwrist -26.0771
lhand -0.732053 -34.4611
lfingers 7.12502
lthumb 24.889 -6.06148
rfemur -53.3989 3.69307 32.4908
rtibia 80.0913
rfoot -31.6126 -18.2104
rtoes -5.04115
lfemur -58.9114 2.70499 -16.4542
ltibia 81.1239
lfoot -37.5045 9.46791
ltoes -23.6067
181
root 8.69614 12.9502 33.8568 -165.581 -1.16439 -176.763
lowerback 20.2919 2.08806 5.38026
upperback -2.17593 4.18329 1.01671
thorax -13.6111 1.51612 -3.21256
lowerneck -6.04659 -3.3696 -6.26546
upperneck -15.92 -5.76197 2.29667
head -3.9578 -3.26713 1.98158
rclavicle 2.76311e-014 1.59028e-014
rhumerus -15.4357 12.1127 -81.9776
rradius 30.552
rwrist 32.1012
rhand -8.87054 -53.3789
rfingers 7.12502
rthumb 17.0711 -82.6489
lclavicle 2.76311e-014 1.59028e-014
lhumerus -30.8214 -2.11738 80.8877
lradius 37.3565
lwrist -25.5328
lhand -3.04384 -36.584
lfingers 7.12502
lthumb 22.6719 -7.89577
rfemur -53.286 3.46497 32.5372
rtibia 79.6551
rfoot -31.2606 -18.299
rtoes -4.92526
lfemur -58.8747 2.1609 -16.3029
ltibia 80.7628
lfoot -37.1412 9.54011
ltoes -23.8694
182
root 8.69196 12.9994 33.8225 -165.839 -0.883247 -176.677
lowerback 20.2139 2.10425 5.34339
upperback -2.11871 4.19227 1.09165
thorax -13.506 1.53026 -3.1035
lowerneck -6.10309 -3.3227 -6.2024
upperneck -15.7934 -5.72499 2.0074
head -3.91298 -3.24206 1.86674
rclavicle -7.35503e-015 -3.18055e-014
rhumerus -15.1077 12.6784 -82.0501
rradius 30.7817
rwrist 31.7379
rhand -8.59572 -53.6759
rfingers 7.12502
rthumb 17.3356 -82.9228
lclavicle -7.35503e-015 -3.18055e-014
lhumerus -30.1059 -2.50029 81.0544
lradius 38.1751
lwrist -24.7555
lhand -4.75763 -37.7191
lfingers 7.12502
lthumb 21.0263 -8.83897
rfemur -52.4194 3.55223 32.5497
rtibia 78.9604
rfoot -31.1163 -18.2521
rtoes -5.02737
lfemur -58.0153 2.1743 -16.2009
ltibia 80.281
lfoot -37.1572 10.3521
ltoes -25.6694
183
root 8.69105 13.0496 33.7974 -165.81 -0.796486 -176.664
lowerback 19.8448 2.10116 5.28562
upperback -2.13286 4.15685 1.13434
thorax -13.3166 1.53028 -2.99243
lowerneck -6.17361 -3.2979 -6.1677
upperneck -15.6048 -5.68479 1.85304
head -3.8383 -3.21475 1.79957
rclavicle 2.46493e-014 3.4191e-014
rhumerus -14.7664 13.089 -82.11
rradius 30.9411
rwrist 31.3623
rhand -8.94422 -53.5019
rfingers 7.12502
rthumb 17.0001 -82.778
lclavicle 2.46493e-014 3.4191e-014
lhumerus -29.4531 -3.38445 81.2946
lradius 39.2831
lwrist -23.2794
lhand -4.83893 -37.7164
lfingers 7.12502
lthumb 20.9482 -8.82758
rfemur -51.9194 3.5081 32.5307
rtibia 78.2546
rfoot -31.205 -18.0867
rtoes -4.63873
lfemur -57.5626 1.9867 -16.1121
ltibia 79.7683
lfoot -37.2058 10.0855
ltoes -24.7159
184
root 8.69128 13.0932 33.7798 -165.737 -0.958947 -176.742
lowerback 19.5306 2.0294 5.2423
upperback -2.22808 4.03965 1.11854
thorax -13.255 1.48425 -2.93741
lowerneck -6.19053 -3.259 -5.85564
upperneck -15.4202 -5.64975 1.53321
head -3.78462 -3.19612 1.63148
rclavicle 6.16232e-015 2.78299e-015
rhumerus -14.5515 13.4638 -82.2519
rradius 31.1003
rwrist 31.0622
rhand -9.30635 -53.0427
rfingers 7.12502
rthumb 16.6515 -82.3484
lclavicle 6.16232e-015 2.78299e-015
lhumerus -28.93 -4.41578 81.5098
lradius 40.2686
lwrist -22.3022
lhand -5.4172 -37.2249
lfingers 7.12502
lthumb 20.3925 -8.27569
rfemur -51.5323 3.32501 32.4824
rtibia 77.5257
rfoot -31.2745 -18.1237
rtoes -4.88065
lfemur -57.2615 1.54169 -16.053
ltibia 79.2169
lfoot -37.1453 9.75621
ltoes -23.1709
185
root 8.68828 13.1348 33.7603 -165.727 -1.10175 -176.849
lowerback 19.3693 1.94846 5.17972
upperback -2.38128 3.91845 1.08491
thorax -13.3508 1.42987 -2.90075
lowerneck -6.23051 -3.20484 -5.5465
upperneck -15.2325 -5.58584 1.26864
head -3.72515 -3.16488 1.48231
rclavicle 5.18828e-014 3.18055e-014
rhumerus -14.5648 13.8831 -82.4723
rradius 31.4504
rwrist 30.7861
rhand -9.08816 -52.855
rfingers 7.12502
rthumb 16.8616 -82.143
lclavicle 5.18828e-014 3.18055e-014
lhumerus -28.5265 -5.21436 81.6633
lradius 41.2612
lwrist -21.4646
lhand -5.34744 -36.8318
lfingers 7.12502
lthumb 20.4596 -7.88973
rfemur -51.06 3.1458 32.4015
rtibia 76.7705
rfoot -31.2185 -18.3514
rtoes -5.14606
lfemur -56.859 1.10991 -16.066
ltibia 78.6184
lfoot -36.9133 10.0418
ltoes -23.8049
186
root 8.68064 13.1888 33.73 -165.858 -1.0431 -176.856
lowerback 19.278 1.89611 5.21233
upperback -2.48992 3.85693 1.05066
thorax -13.4247 1.39544 -2.93817
lowerneck -6.45543 -3.16668 -5.35249
upperneck -14.8227 -5.49012 1.13923
head -3.5474 -3.11357 1.38542
rclavicle -1.27222e-014 2.26615e-014
rhumerus -14.7038 14.3415 -82.7416
rradius 31.9763
rwrist 30.2076
rhand -8.61568 -53.2016
rfingers 7.12502
rthumb 17.3164 -82.4502
lclavicle -1.27222e-014 2.26615e-014
lhumerus -28.2063 -5.76411 81.7171
lradius 42.5774
lwrist -19.9606
lhand -3.8002 -37.1549
lfingers 7.12502
lthumb 21.9458 -8.37968
rfemur -50.3012 3.06039 32.3532
rtibia 75.8806
rfoot -31.1835 -18.3636
rtoes -3.99439
lfemur -56.1347 0.91806 -16.0601
ltibia 77.9111
lfoot -36.7101 10.4367
ltoes -25.4416
187
root 8.67518 13.251 33.6937 -166.076 -0.895347 -176.817
lowerback 19.0987 1.87493 5.20765
upperback -2.48278 3.81901 1.0866
thorax -13.3167 1.38477 -2.87469
lowerneck -6.62453 -3.08621 -5.56479
upperneck -14.5217 -5.30654 1.31223
head -3.40707 -3.00991 1.4636
rclavicle 8.94531e-015 -1.59028e-014
rhumerus -14.7743 14.9369 -82.886
rradius 32.4969
rwrist 29.4233
rhand -8.43262 -53.5257
rfingers 7.12502
rthumb 17.4925 -82.7587
lclavicle 8.94531e-015 -1.59028e-014
lhumerus -27.9776 -6.59683 81.9283
lradius 43.6317
lwrist -19.637
lhand -5.94899 -37.1493
lfingers 7.12502
lthumb 19.8814 -8.14627
rfemur -49.3706 2.95648 32.3714
rtibia 74.8847
rfoot -31.1217 -18.3509
rtoes -4.02216
lfemur -55.2214 0.83826 -16.0068
ltibia 77.1142
lfoot -36.4745 10.7951
ltoes -25.9327
